<?xml version="1.0" encoding="utf-8"?>
<svg xmlns="http://www.w3.org/2000/svg" xmlns:xlink="http://www.w3.org/1999/xlink" width="600" height="400" viewBox="0 0 2400 1600">
<defs>
  <clipPath id="clip700">
    <rect x="0" y="0" width="2400" height="1600"/>
  </clipPath>
</defs>
<path clip-path="url(#clip700)" d="
M0 1600 L2400 1600 L2400 0 L0 0  Z
  " fill="#ffffff" fill-rule="evenodd" fill-opacity="1"/>
<defs>
  <clipPath id="clip701">
    <rect x="480" y="0" width="1681" height="1600"/>
  </clipPath>
</defs>
<path clip-path="url(#clip700)" d="
M174.862 1486.45 L2352.76 1486.45 L2352.76 47.2441 L174.862 47.2441  Z
  " fill="#ffffff" fill-rule="evenodd" fill-opacity="1"/>
<defs>
  <clipPath id="clip702">
    <rect x="174" y="47" width="2179" height="1440"/>
  </clipPath>
</defs>
<defs>
  <clipPath id="clip703">
    <rect x="598" y="156" width="1331" height="1331"/>
  </clipPath>
</defs>
<polyline clip-path="url(#clip703)" style="stroke:#000000; stroke-width:2; stroke-opacity:0.1; fill:none" points="
  1928.96,821.293 1263.81,821.293 
  "/>
<polyline clip-path="url(#clip703)" style="stroke:#000000; stroke-width:2; stroke-opacity:0.1; fill:none" points="
  1734.14,1291.63 1263.81,821.293 
  "/>
<polyline clip-path="url(#clip703)" style="stroke:#000000; stroke-width:2; stroke-opacity:0.1; fill:none" points="
  1263.81,1486.45 1263.81,821.293 
  "/>
<polyline clip-path="url(#clip703)" style="stroke:#000000; stroke-width:2; stroke-opacity:0.1; fill:none" points="
  793.474,1291.63 1263.81,821.293 
  "/>
<polyline clip-path="url(#clip703)" style="stroke:#000000; stroke-width:2; stroke-opacity:0.1; fill:none" points="
  598.654,821.293 1263.81,821.293 
  "/>
<polyline clip-path="url(#clip703)" style="stroke:#000000; stroke-width:2; stroke-opacity:0.1; fill:none" points="
  793.474,350.958 1263.81,821.293 
  "/>
<polyline clip-path="url(#clip703)" style="stroke:#000000; stroke-width:2; stroke-opacity:0.1; fill:none" points="
  1263.81,156.139 1263.81,821.293 
  "/>
<polyline clip-path="url(#clip703)" style="stroke:#000000; stroke-width:2; stroke-opacity:0.1; fill:none" points="
  1734.14,350.958 1263.81,821.293 
  "/>
<polyline clip-path="url(#clip703)" style="stroke:#000000; stroke-width:2; stroke-opacity:0.1; fill:none" points="
  1263.81,821.293 1263.81,821.293 
  
  
  
  
  
  
  
  
  
  
  
  
  
  
  
  
  
  
  
  
  
  
  
  
  
  
  
  
  
  
  
  
  
  
  
  
  "/>
<polyline clip-path="url(#clip703)" style="stroke:#000000; stroke-width:2; stroke-opacity:0.1; fill:none" points="
  1402.38,821.293 1402.36,818.875 1402.3,816.457 1402.19,814.041 1402.05,811.627 1401.86,809.216 1401.62,806.808 1401.35,804.405 1401.03,802.008 1400.68,799.616 
  1400.28,797.23 1399.84,794.852 1399.35,792.482 1398.83,790.121 1398.27,787.769 1397.66,785.428 1397.01,783.097 1396.33,780.778 1395.6,778.472 1394.83,776.178 
  1394.03,773.898 1393.18,771.633 1392.29,769.383 1391.37,767.148 1390.4,764.93 1389.4,762.729 1388.36,760.547 1387.28,758.382 1386.16,756.237 1385.01,754.111 
  1383.82,752.006 1382.59,749.923 1381.33,747.86 1380.03,745.821 1378.69,743.804 1377.32,741.811 1375.92,739.842 1374.48,737.897 1373.01,735.979 1371.5,734.086 
  1369.96,732.22 1368.39,730.381 1366.79,728.569 1365.16,726.786 1363.49,725.032 1361.8,723.307 1360.07,721.612 1358.32,719.947 1356.53,718.313 1354.72,716.71 
  1352.88,715.14 1351.02,713.601 1349.12,712.096 1347.2,710.623 1345.26,709.185 1343.29,707.78 1341.3,706.41 1339.28,705.076 1337.24,703.776 1335.18,702.512 
  1333.1,701.285 1330.99,700.094 1328.87,698.94 1326.72,697.823 1324.56,696.744 1322.37,695.703 1320.17,694.7 1317.95,693.735 1315.72,692.81 1313.47,691.923 
  1311.2,691.076 1308.92,690.269 1306.63,689.502 1304.32,688.774 1302.01,688.088 1299.67,687.441 1297.33,686.836 1294.98,686.271 1292.62,685.748 1290.25,685.265 
  1287.87,684.825 1285.49,684.426 1283.09,684.068 1280.7,683.752 1278.29,683.479 1275.89,683.247 1273.48,683.057 1271.06,682.909 1268.65,682.804 1266.23,682.741 
  1263.81,682.719 1261.39,682.741 1258.97,682.804 1256.56,682.909 1254.14,683.057 1251.73,683.247 1249.32,683.479 1246.92,683.752 1244.52,684.068 1242.13,684.426 
  1239.75,684.825 1237.37,685.265 1235,685.748 1232.64,686.271 1230.28,686.836 1227.94,687.441 1225.61,688.088 1223.29,688.774 1220.99,689.502 1218.69,690.269 
  1216.41,691.076 1214.15,691.923 1211.9,692.81 1209.66,693.735 1207.45,694.7 1205.25,695.703 1203.06,696.744 1200.9,697.823 1198.75,698.94 1196.63,700.094 
  1194.52,701.285 1192.44,702.512 1190.38,703.776 1188.34,705.076 1186.32,706.41 1184.33,707.78 1182.36,709.185 1180.41,710.623 1178.49,712.096 1176.6,713.601 
  1174.74,715.14 1172.9,716.71 1171.08,718.313 1169.3,719.947 1167.55,721.612 1165.82,723.307 1164.13,725.032 1162.46,726.786 1160.83,728.569 1159.23,730.381 
  1157.66,732.22 1156.12,734.086 1154.61,735.979 1153.14,737.897 1151.7,739.842 1150.3,741.811 1148.93,743.804 1147.59,745.821 1146.29,747.86 1145.03,749.923 
  1143.8,752.006 1142.61,754.111 1141.46,756.237 1140.34,758.382 1139.26,760.547 1138.22,762.729 1137.22,764.93 1136.25,767.148 1135.33,769.383 1134.44,771.633 
  1133.59,773.898 1132.78,776.178 1132.02,778.472 1131.29,780.778 1130.6,783.097 1129.96,785.428 1129.35,787.769 1128.79,790.121 1128.26,792.482 1127.78,794.852 
  1127.34,797.23 1126.94,799.616 1126.58,802.008 1126.27,804.405 1125.99,806.808 1125.76,809.216 1125.57,811.627 1125.43,814.041 1125.32,816.457 1125.26,818.875 
  1125.24,821.293 1125.26,823.712 1125.32,826.129 1125.43,828.546 1125.57,830.96 1125.76,833.371 1125.99,835.778 1126.27,838.181 1126.58,840.579 1126.94,842.971 
  1127.34,845.356 1127.78,847.734 1128.26,850.104 1128.79,852.466 1129.35,854.817 1129.96,857.159 1130.6,859.489 1131.29,861.808 1132.02,864.115 1132.78,866.409 
  1133.59,868.688 1134.44,870.954 1135.33,873.204 1136.25,875.438 1137.22,877.656 1138.22,879.857 1139.26,882.04 1140.34,884.205 1141.46,886.35 1142.61,888.475 
  1143.8,890.58 1145.03,892.664 1146.29,894.726 1147.59,896.766 1148.93,898.783 1150.3,900.776 1151.7,902.745 1153.14,904.689 1154.61,906.608 1156.12,908.501 
  1157.66,910.367 1159.23,912.206 1160.83,914.017 1162.46,915.8 1164.13,917.555 1165.82,919.28 1167.55,920.975 1169.3,922.64 1171.08,924.274 1172.9,925.876 
  1174.74,927.447 1176.6,928.985 1178.49,930.491 1180.41,931.963 1182.36,933.402 1184.33,934.806 1186.32,936.176 1188.34,937.511 1190.38,938.811 1192.44,940.074 
  1194.52,941.302 1196.63,942.493 1198.75,943.647 1200.9,944.764 1203.06,945.843 1205.25,946.884 1207.45,947.887 1209.66,948.851 1211.9,949.777 1214.15,950.663 
  1216.41,951.51 1218.69,952.317 1220.99,953.085 1223.29,953.812 1225.61,954.499 1227.94,955.145 1230.28,955.751 1232.64,956.316 1235,956.839 1237.37,957.321 
  1239.75,957.762 1242.13,958.161 1244.52,958.519 1246.92,958.834 1249.32,959.108 1251.73,959.34 1254.14,959.53 1256.56,959.677 1258.97,959.783 1261.39,959.846 
  1263.81,959.867 1266.23,959.846 1268.65,959.783 1271.06,959.677 1273.48,959.53 1275.89,959.34 1278.29,959.108 1280.7,958.834 1283.09,958.519 1285.49,958.161 
  1287.87,957.762 1290.25,957.321 1292.62,956.839 1294.98,956.316 1297.33,955.751 1299.67,955.145 1302.01,954.499 1304.32,953.812 1306.63,953.085 1308.92,952.317 
  1311.2,951.51 1313.47,950.663 1315.72,949.777 1317.95,948.851 1320.17,947.887 1322.37,946.884 1324.56,945.843 1326.72,944.764 1328.87,943.647 1330.99,942.493 
  1333.1,941.302 1335.18,940.074 1337.24,938.811 1339.28,937.511 1341.3,936.176 1343.29,934.806 1345.26,933.402 1347.2,931.963 1349.12,930.491 1351.02,928.985 
  1352.88,927.447 1354.72,925.876 1356.53,924.274 1358.32,922.64 1360.07,920.975 1361.8,919.28 1363.49,917.555 1365.16,915.8 1366.79,914.017 1368.39,912.206 
  1369.96,910.367 1371.5,908.501 1373.01,906.608 1374.48,904.689 1375.92,902.745 1377.32,900.776 1378.69,898.783 1380.03,896.766 1381.33,894.726 1382.59,892.664 
  1383.82,890.58 1385.01,888.475 1386.16,886.35 1387.28,884.205 1388.36,882.04 1389.4,879.857 1390.4,877.656 1391.37,875.438 1392.29,873.204 1393.18,870.954 
  1394.03,868.688 1394.83,866.409 1395.6,864.115 1396.33,861.808 1397.01,859.489 1397.66,857.159 1398.27,854.817 1398.83,852.466 1399.35,850.104 1399.84,847.734 
  1400.28,845.356 1400.68,842.971 1401.03,840.579 1401.35,838.181 1401.62,835.778 1401.86,833.371 1402.05,830.96 1402.19,828.546 1402.3,826.129 1402.36,823.712 
  
  "/>
<polyline clip-path="url(#clip703)" style="stroke:#000000; stroke-width:2; stroke-opacity:0.1; fill:none" points="
  1540.96,821.293 1540.91,816.456 1540.79,811.621 1540.58,806.789 1540.28,801.96 1539.9,797.138 1539.44,792.324 1538.89,787.518 1538.26,782.722 1537.54,777.938 
  1536.75,773.167 1535.86,768.411 1534.9,763.671 1533.85,758.949 1532.72,754.245 1531.51,749.562 1530.22,744.901 1528.85,740.263 1527.39,735.65 1525.86,731.063 
  1524.24,726.503 1522.55,721.972 1520.78,717.472 1518.92,713.003 1517,708.567 1514.99,704.166 1512.91,699.8 1510.75,695.471 1508.52,691.18 1506.21,686.929 
  1503.83,682.719 1501.37,678.552 1498.84,674.427 1496.24,670.348 1493.57,666.314 1490.84,662.328 1488.03,658.39 1485.15,654.502 1482.2,650.664 1479.19,646.879 
  1476.12,643.146 1472.98,639.468 1469.77,635.845 1466.5,632.279 1463.17,628.77 1459.78,625.32 1456.33,621.93 1452.82,618.6 1449.26,615.332 1445.63,612.127 
  1441.96,608.986 1438.22,605.909 1434.44,602.898 1430.6,599.953 1426.71,597.076 1422.77,594.267 1418.79,591.527 1414.75,588.858 1410.67,586.259 1406.55,583.731 
  1402.38,581.276 1398.17,578.894 1393.92,576.586 1389.63,574.353 1385.3,572.195 1380.94,570.112 1376.54,568.106 1372.1,566.178 1367.63,564.326 1363.13,562.554 
  1358.6,560.86 1354.04,559.245 1349.45,557.71 1344.84,556.256 1340.2,554.882 1335.54,553.589 1330.86,552.378 1326.15,551.249 1321.43,550.202 1316.69,549.238 
  1311.94,548.356 1307.16,547.558 1302.38,546.843 1297.58,546.211 1292.78,545.664 1287.96,545.2 1283.14,544.821 1278.31,544.525 1273.48,544.314 1268.65,544.188 
  1263.81,544.146 1258.97,544.188 1254.14,544.314 1249.3,544.525 1244.48,544.821 1239.65,545.2 1234.84,545.664 1230.03,546.211 1225.24,546.843 1220.45,547.558 
  1215.68,548.356 1210.93,549.238 1206.19,550.202 1201.46,551.249 1196.76,552.378 1192.08,553.589 1187.42,554.882 1182.78,556.256 1178.17,557.71 1173.58,559.245 
  1169.02,560.86 1164.49,562.554 1159.99,564.326 1155.52,566.178 1151.08,568.106 1146.68,570.112 1142.32,572.195 1137.99,574.353 1133.7,576.586 1129.45,578.894 
  1125.24,581.276 1121.07,583.731 1116.94,586.259 1112.86,588.858 1108.83,591.527 1104.84,594.267 1100.91,597.076 1097.02,599.953 1093.18,602.898 1089.39,605.909 
  1085.66,608.986 1081.98,612.127 1078.36,615.332 1074.79,618.6 1071.29,621.93 1067.84,625.32 1064.45,628.77 1061.12,632.279 1057.85,635.845 1054.64,639.468 
  1051.5,643.146 1048.42,646.879 1045.41,650.664 1042.47,654.502 1039.59,658.39 1036.78,662.328 1034.04,666.314 1031.37,670.348 1028.77,674.427 1026.25,678.552 
  1023.79,682.719 1021.41,686.929 1019.1,691.18 1016.87,695.471 1014.71,699.8 1012.63,704.166 1010.62,708.567 1008.69,713.003 1006.84,717.472 1005.07,721.972 
  1003.38,726.503 1001.76,731.063 1000.23,735.65 998.771,740.263 997.397,744.901 996.105,749.562 994.894,754.245 993.765,758.949 992.718,763.671 991.753,768.411 
  990.872,773.167 990.073,777.938 989.358,782.722 988.727,787.518 988.179,792.324 987.716,797.138 987.336,801.96 987.041,806.789 986.83,811.621 986.703,816.456 
  986.661,821.293 986.703,826.13 986.83,830.966 987.041,835.798 987.336,840.626 987.716,845.448 988.179,850.263 988.727,855.069 989.358,859.865 990.073,864.649 
  990.872,869.42 991.753,874.176 992.718,878.916 993.765,883.638 994.894,888.341 996.105,893.024 997.397,897.686 998.771,902.323 1000.23,906.937 1001.76,911.524 
  1003.38,916.083 1005.07,920.614 1006.84,925.115 1008.69,929.584 1010.62,934.019 1012.63,938.421 1014.71,942.787 1016.87,947.116 1019.1,951.406 1021.41,955.657 
  1023.79,959.867 1026.25,964.035 1028.77,968.159 1031.37,972.239 1034.04,976.272 1036.78,980.259 1039.59,984.197 1042.47,988.085 1045.41,991.923 1048.42,995.708 
  1051.5,999.44 1054.64,1003.12 1057.85,1006.74 1061.12,1010.31 1064.45,1013.82 1067.84,1017.27 1071.29,1020.66 1074.79,1023.99 1078.36,1027.25 1081.98,1030.46 
  1085.66,1033.6 1089.39,1036.68 1093.18,1039.69 1097.02,1042.63 1100.91,1045.51 1104.84,1048.32 1108.83,1051.06 1112.86,1053.73 1116.94,1056.33 1121.07,1058.86 
  1125.24,1061.31 1129.45,1063.69 1133.7,1066 1137.99,1068.23 1142.32,1070.39 1146.68,1072.47 1151.08,1074.48 1155.52,1076.41 1159.99,1078.26 1164.49,1080.03 
  1169.02,1081.73 1173.58,1083.34 1178.17,1084.88 1182.78,1086.33 1187.42,1087.7 1192.08,1089 1196.76,1090.21 1201.46,1091.34 1206.19,1092.38 1210.93,1093.35 
  1215.68,1094.23 1220.45,1095.03 1225.24,1095.74 1230.03,1096.38 1234.84,1096.92 1239.65,1097.39 1244.48,1097.77 1249.3,1098.06 1254.14,1098.27 1258.97,1098.4 
  1263.81,1098.44 1268.65,1098.4 1273.48,1098.27 1278.31,1098.06 1283.14,1097.77 1287.96,1097.39 1292.78,1096.92 1297.58,1096.38 1302.38,1095.74 1307.16,1095.03 
  1311.94,1094.23 1316.69,1093.35 1321.43,1092.38 1326.15,1091.34 1330.86,1090.21 1335.54,1089 1340.2,1087.7 1344.84,1086.33 1349.45,1084.88 1354.04,1083.34 
  1358.6,1081.73 1363.13,1080.03 1367.63,1078.26 1372.1,1076.41 1376.54,1074.48 1380.94,1072.47 1385.3,1070.39 1389.63,1068.23 1393.92,1066 1398.17,1063.69 
  1402.38,1061.31 1406.55,1058.86 1410.67,1056.33 1414.75,1053.73 1418.79,1051.06 1422.77,1048.32 1426.71,1045.51 1430.6,1042.63 1434.44,1039.69 1438.22,1036.68 
  1441.96,1033.6 1445.63,1030.46 1449.26,1027.25 1452.82,1023.99 1456.33,1020.66 1459.78,1017.27 1463.17,1013.82 1466.5,1010.31 1469.77,1006.74 1472.98,1003.12 
  1476.12,999.44 1479.19,995.708 1482.2,991.923 1485.15,988.085 1488.03,984.197 1490.84,980.259 1493.57,976.272 1496.24,972.239 1498.84,968.159 1501.37,964.035 
  1503.83,959.867 1506.21,955.657 1508.52,951.406 1510.75,947.116 1512.91,942.787 1514.99,938.421 1517,934.019 1518.92,929.584 1520.78,925.115 1522.55,920.614 
  1524.24,916.083 1525.86,911.524 1527.39,906.937 1528.85,902.323 1530.22,897.686 1531.51,893.024 1532.72,888.341 1533.85,883.638 1534.9,878.916 1535.86,874.176 
  1536.75,869.42 1537.54,864.649 1538.26,859.865 1538.89,855.069 1539.44,850.263 1539.9,845.448 1540.28,840.626 1540.58,835.798 1540.79,830.966 1540.91,826.13 
  
  "/>
<polyline clip-path="url(#clip703)" style="stroke:#000000; stroke-width:2; stroke-opacity:0.1; fill:none" points="
  1679.53,821.293 1679.47,814.038 1679.28,806.785 1678.96,799.536 1678.52,792.294 1677.95,785.061 1677.25,777.839 1676.43,770.63 1675.48,763.436 1674.41,756.26 
  1673.21,749.104 1671.89,741.97 1670.45,734.86 1668.88,727.776 1667.18,720.721 1665.37,713.697 1663.43,706.705 1661.37,699.748 1659.18,692.828 1656.88,685.948 
  1654.46,679.108 1651.92,672.312 1649.26,665.561 1646.48,658.858 1643.59,652.204 1640.58,645.602 1637.46,639.053 1634.22,632.56 1630.87,626.124 1627.41,619.748 
  1623.83,613.433 1620.15,607.181 1616.36,600.994 1612.46,594.875 1608.46,588.825 1604.35,582.845 1600.13,576.938 1595.82,571.106 1591.4,565.35 1586.89,559.671 
  1582.27,554.073 1577.56,548.555 1572.75,543.121 1567.85,537.772 1562.85,532.509 1557.77,527.334 1552.59,522.248 1547.33,517.254 1541.98,512.352 1536.55,507.544 
  1531.03,502.832 1525.43,498.217 1519.75,493.7 1514,489.283 1508.16,484.968 1502.26,480.754 1496.28,476.645 1490.23,472.64 1484.11,468.741 1477.92,464.95 
  1471.67,461.268 1465.35,457.695 1458.98,454.233 1452.54,450.883 1446.05,447.645 1439.5,444.522 1432.9,441.513 1426.24,438.62 1419.54,435.843 1412.79,433.184 
  1405.99,430.643 1399.15,428.221 1392.27,425.919 1385.35,423.737 1378.4,421.676 1371.41,419.737 1364.38,417.92 1357.33,416.227 1350.24,414.656 1343.13,413.21 
  1336,411.887 1328.84,410.69 1321.67,409.618 1314.47,408.67 1307.26,407.849 1300.04,407.154 1292.81,406.584 1285.57,406.141 1278.32,405.825 1271.06,405.635 
  1263.81,405.572 1256.55,405.635 1249.3,405.825 1242.05,406.141 1234.81,406.584 1227.58,407.154 1220.35,407.849 1213.15,408.67 1205.95,409.618 1198.78,410.69 
  1191.62,411.887 1184.49,413.21 1177.38,414.656 1170.29,416.227 1163.24,417.92 1156.21,419.737 1149.22,421.676 1142.26,423.737 1135.34,425.919 1128.46,428.221 
  1121.62,430.643 1114.83,433.184 1108.08,435.843 1101.37,438.62 1094.72,441.513 1088.12,444.522 1081.57,447.645 1075.08,450.883 1068.64,454.233 1062.26,457.695 
  1055.95,461.268 1049.7,464.95 1043.51,468.741 1037.39,472.64 1031.34,476.645 1025.36,480.754 1019.45,484.968 1013.62,489.283 1007.87,493.7 1002.19,498.217 
  996.588,502.832 991.071,507.544 985.637,512.352 980.288,517.254 975.024,522.248 969.849,527.334 964.764,532.509 959.769,537.772 954.868,543.121 950.06,548.555 
  945.348,554.073 940.733,559.671 936.216,565.35 931.799,571.106 927.483,576.938 923.27,582.845 919.16,588.825 915.156,594.875 911.257,600.994 907.466,607.181 
  903.784,613.433 900.211,619.748 896.749,626.124 893.398,632.56 890.161,639.053 887.037,645.602 884.028,652.204 881.135,658.858 878.359,665.561 875.699,672.312 
  873.158,679.108 870.736,685.948 868.434,692.828 866.252,699.748 864.192,706.705 862.253,713.697 860.436,720.721 858.742,727.776 857.172,734.86 855.725,741.97 
  854.403,749.104 853.206,756.26 852.133,763.436 851.186,770.63 850.365,777.839 849.669,785.061 849.1,792.294 848.657,799.536 848.341,806.785 848.151,814.038 
  848.087,821.293 848.151,828.549 848.341,835.802 848.657,843.051 849.1,850.293 849.669,857.526 850.365,864.748 851.186,871.957 852.133,879.151 853.206,886.327 
  854.403,893.483 855.725,900.617 857.172,907.727 858.742,914.81 860.436,921.865 862.253,928.89 864.192,935.882 866.252,942.839 868.434,949.758 870.736,956.639 
  873.158,963.478 875.699,970.275 878.359,977.025 881.135,983.729 884.028,990.383 887.037,996.985 890.161,1003.53 893.398,1010.03 896.749,1016.46 900.211,1022.84 
  903.784,1029.15 907.466,1035.41 911.257,1041.59 915.156,1047.71 919.16,1053.76 923.27,1059.74 927.483,1065.65 931.799,1071.48 936.216,1077.24 940.733,1082.92 
  945.348,1088.51 950.06,1094.03 954.868,1099.47 959.769,1104.81 964.764,1110.08 969.849,1115.25 975.024,1120.34 980.288,1125.33 985.637,1130.23 991.071,1135.04 
  996.588,1139.75 1002.19,1144.37 1007.87,1148.89 1013.62,1153.3 1019.45,1157.62 1025.36,1161.83 1031.34,1165.94 1037.39,1169.95 1043.51,1173.85 1049.7,1177.64 
  1055.95,1181.32 1062.26,1184.89 1068.64,1188.35 1075.08,1191.7 1081.57,1194.94 1088.12,1198.07 1094.72,1201.07 1101.37,1203.97 1108.08,1206.74 1114.83,1209.4 
  1121.62,1211.94 1128.46,1214.37 1135.34,1216.67 1142.26,1218.85 1149.22,1220.91 1156.21,1222.85 1163.24,1224.67 1170.29,1226.36 1177.38,1227.93 1184.49,1229.38 
  1191.62,1230.7 1198.78,1231.9 1205.95,1232.97 1213.15,1233.92 1220.35,1234.74 1227.58,1235.43 1234.81,1236 1242.05,1236.45 1249.3,1236.76 1256.55,1236.95 
  1263.81,1237.01 1271.06,1236.95 1278.32,1236.76 1285.57,1236.45 1292.81,1236 1300.04,1235.43 1307.26,1234.74 1314.47,1233.92 1321.67,1232.97 1328.84,1231.9 
  1336,1230.7 1343.13,1229.38 1350.24,1227.93 1357.33,1226.36 1364.38,1224.67 1371.41,1222.85 1378.4,1220.91 1385.35,1218.85 1392.27,1216.67 1399.15,1214.37 
  1405.99,1211.94 1412.79,1209.4 1419.54,1206.74 1426.24,1203.97 1432.9,1201.07 1439.5,1198.07 1446.05,1194.94 1452.54,1191.7 1458.98,1188.35 1465.35,1184.89 
  1471.67,1181.32 1477.92,1177.64 1484.11,1173.85 1490.23,1169.95 1496.28,1165.94 1502.26,1161.83 1508.16,1157.62 1514,1153.3 1519.75,1148.89 1525.43,1144.37 
  1531.03,1139.75 1536.55,1135.04 1541.98,1130.23 1547.33,1125.33 1552.59,1120.34 1557.77,1115.25 1562.85,1110.08 1567.85,1104.81 1572.75,1099.47 1577.56,1094.03 
  1582.27,1088.51 1586.89,1082.92 1591.4,1077.24 1595.82,1071.48 1600.13,1065.65 1604.35,1059.74 1608.46,1053.76 1612.46,1047.71 1616.36,1041.59 1620.15,1035.41 
  1623.83,1029.15 1627.41,1022.84 1630.87,1016.46 1634.22,1010.03 1637.46,1003.53 1640.58,996.985 1643.59,990.383 1646.48,983.729 1649.26,977.025 1651.92,970.275 
  1654.46,963.478 1656.88,956.639 1659.18,949.758 1661.37,942.839 1663.43,935.882 1665.37,928.89 1667.18,921.865 1668.88,914.81 1670.45,907.727 1671.89,900.617 
  1673.21,893.483 1674.41,886.327 1675.48,879.151 1676.43,871.957 1677.25,864.748 1677.95,857.526 1678.52,850.293 1678.96,843.051 1679.28,835.802 1679.47,828.549 
  
  "/>
<polyline clip-path="url(#clip703)" style="stroke:#000000; stroke-width:2; stroke-opacity:0.1; fill:none" points="
  1818.1,821.293 1818.02,811.62 1817.77,801.949 1817.34,792.284 1816.75,782.628 1816,772.983 1815.07,763.354 1813.97,753.742 1812.71,744.15 1811.28,734.582 
  1809.68,725.041 1807.92,715.529 1805.99,706.049 1803.9,696.604 1801.64,687.197 1799.22,677.831 1796.63,668.509 1793.88,659.233 1790.98,650.007 1787.91,640.832 
  1784.68,631.713 1781.29,622.652 1777.74,613.651 1774.04,604.713 1770.18,595.841 1766.17,587.038 1762.01,578.306 1757.69,569.648 1753.22,561.067 1748.61,552.566 
  1743.84,544.146 1738.93,535.81 1733.88,527.561 1728.68,519.402 1723.34,511.335 1717.86,503.363 1712.24,495.487 1706.49,487.71 1700.6,480.035 1694.58,472.464 
  1688.42,464.999 1682.14,457.643 1675.73,450.397 1669.19,443.265 1662.54,436.247 1655.76,429.347 1648.85,422.567 1641.84,415.907 1634.71,409.372 1627.46,402.961 
  1620.1,396.678 1612.64,390.525 1605.07,384.503 1597.39,378.613 1589.62,372.859 1581.74,367.241 1573.77,361.762 1565.7,356.422 1557.54,351.224 1549.29,346.169 
  1540.96,341.259 1532.54,336.496 1524.03,331.879 1515.45,327.412 1506.8,323.096 1498.06,318.931 1489.26,314.919 1480.39,311.062 1471.45,307.36 1462.45,303.814 
  1453.39,300.426 1444.27,297.197 1435.1,294.127 1425.87,291.218 1416.59,288.47 1407.27,285.885 1397.91,283.463 1388.5,281.204 1379.05,279.111 1369.57,277.182 
  1360.06,275.419 1350.52,273.822 1340.95,272.392 1331.36,271.13 1321.75,270.034 1312.12,269.107 1302.47,268.348 1292.82,267.758 1283.15,267.336 1273.48,267.082 
  1263.81,266.998 1254.14,267.082 1244.46,267.336 1234.8,267.758 1225.14,268.348 1215.5,269.107 1205.87,270.034 1196.26,271.13 1186.67,272.392 1177.1,273.822 
  1167.56,275.419 1158.04,277.182 1148.56,279.111 1139.12,281.204 1129.71,283.463 1120.35,285.885 1111.02,288.47 1101.75,291.218 1092.52,294.127 1083.35,297.197 
  1074.23,300.426 1065.17,303.814 1056.17,307.36 1047.23,311.062 1038.36,314.919 1029.55,318.931 1020.82,323.096 1012.16,327.412 1003.58,331.879 995.081,336.496 
  986.661,341.259 978.326,346.169 970.077,351.224 961.918,356.422 953.851,361.762 945.878,367.241 938.002,372.859 930.226,378.613 922.551,384.503 914.98,390.525 
  907.515,396.678 900.158,402.961 892.913,409.372 885.78,415.907 878.763,422.567 871.863,429.347 865.082,436.247 858.423,443.265 851.887,450.397 845.477,457.643 
  839.194,464.999 833.04,472.464 827.018,480.035 821.129,487.71 815.375,495.487 809.757,503.363 804.277,511.335 798.938,519.402 793.74,527.561 788.685,535.81 
  783.775,544.146 779.011,552.566 774.395,561.067 769.928,569.648 765.612,578.306 761.447,587.038 757.435,595.841 753.577,604.713 749.875,613.651 746.33,622.652 
  742.942,631.713 739.712,640.832 736.643,650.007 733.734,659.233 730.986,668.509 728.401,677.831 725.978,687.197 723.72,696.604 721.626,706.049 719.697,715.529 
  717.935,725.041 716.338,734.582 714.908,744.15 713.645,753.742 712.55,763.354 711.623,772.983 710.864,782.628 710.273,792.284 709.851,801.949 709.598,811.62 
  709.514,821.293 709.598,830.967 709.851,840.638 710.273,850.303 710.864,859.959 711.623,869.603 712.55,879.233 713.645,888.845 714.908,898.436 716.338,908.004 
  717.935,917.546 719.697,927.058 721.626,936.538 723.72,945.983 725.978,955.39 728.401,964.756 730.986,974.078 733.734,983.354 736.643,992.58 739.712,1001.75 
  742.942,1010.87 746.33,1019.94 749.875,1028.94 753.577,1037.87 757.435,1046.75 761.447,1055.55 765.612,1064.28 769.928,1072.94 774.395,1081.52 779.011,1090.02 
  783.775,1098.44 788.685,1106.78 793.74,1115.03 798.938,1123.18 804.277,1131.25 809.757,1139.22 815.375,1147.1 821.129,1154.88 827.018,1162.55 833.04,1170.12 
  839.194,1177.59 845.477,1184.94 851.887,1192.19 858.423,1199.32 865.082,1206.34 871.863,1213.24 878.763,1220.02 885.78,1226.68 892.913,1233.22 900.158,1239.63 
  907.515,1245.91 914.98,1252.06 922.551,1258.08 930.226,1263.97 938.002,1269.73 945.878,1275.35 953.851,1280.83 961.918,1286.16 970.077,1291.36 978.326,1296.42 
  986.661,1301.33 995.081,1306.09 1003.58,1310.71 1012.16,1315.17 1020.82,1319.49 1029.55,1323.66 1038.36,1327.67 1047.23,1331.52 1056.17,1335.23 1065.17,1338.77 
  1074.23,1342.16 1083.35,1345.39 1092.52,1348.46 1101.75,1351.37 1111.02,1354.12 1120.35,1356.7 1129.71,1359.12 1139.12,1361.38 1148.56,1363.48 1158.04,1365.4 
  1167.56,1367.17 1177.1,1368.76 1186.67,1370.19 1196.26,1371.46 1205.87,1372.55 1215.5,1373.48 1225.14,1374.24 1234.8,1374.83 1244.46,1375.25 1254.14,1375.5 
  1263.81,1375.59 1273.48,1375.5 1283.15,1375.25 1292.82,1374.83 1302.47,1374.24 1312.12,1373.48 1321.75,1372.55 1331.36,1371.46 1340.95,1370.19 1350.52,1368.76 
  1360.06,1367.17 1369.57,1365.4 1379.05,1363.48 1388.5,1361.38 1397.91,1359.12 1407.27,1356.7 1416.59,1354.12 1425.87,1351.37 1435.1,1348.46 1444.27,1345.39 
  1453.39,1342.16 1462.45,1338.77 1471.45,1335.23 1480.39,1331.52 1489.26,1327.67 1498.06,1323.66 1506.8,1319.49 1515.45,1315.17 1524.03,1310.71 1532.54,1306.09 
  1540.96,1301.33 1549.29,1296.42 1557.54,1291.36 1565.7,1286.16 1573.77,1280.83 1581.74,1275.35 1589.62,1269.73 1597.39,1263.97 1605.07,1258.08 1612.64,1252.06 
  1620.1,1245.91 1627.46,1239.63 1634.71,1233.22 1641.84,1226.68 1648.85,1220.02 1655.76,1213.24 1662.54,1206.34 1669.19,1199.32 1675.73,1192.19 1682.14,1184.94 
  1688.42,1177.59 1694.58,1170.12 1700.6,1162.55 1706.49,1154.88 1712.24,1147.1 1717.86,1139.22 1723.34,1131.25 1728.68,1123.18 1733.88,1115.03 1738.93,1106.78 
  1743.84,1098.44 1748.61,1090.02 1753.22,1081.52 1757.69,1072.94 1762.01,1064.28 1766.17,1055.55 1770.18,1046.75 1774.04,1037.87 1777.74,1028.94 1781.29,1019.94 
  1784.68,1010.87 1787.91,1001.75 1790.98,992.58 1793.88,983.354 1796.63,974.078 1799.22,964.756 1801.64,955.39 1803.9,945.983 1805.99,936.538 1807.92,927.058 
  1809.68,917.546 1811.28,908.004 1812.71,898.436 1813.97,888.845 1815.07,879.233 1816,869.603 1816.75,859.959 1817.34,850.303 1817.77,840.638 1818.02,830.967 
  
  "/>
<polyline clip-path="url(#clip703)" style="stroke:#000000; stroke-width:2; stroke-opacity:0.1; fill:none" points="
  1928.96,821.293 1928.86,809.685 1928.56,798.08 1928.05,786.482 1927.34,774.894 1926.43,763.321 1925.32,751.766 1924.01,740.231 1922.49,728.722 1920.77,717.24 
  1918.86,705.79 1916.74,694.376 1914.43,683 1911.92,671.666 1909.21,660.378 1906.3,649.139 1903.2,637.952 1899.9,626.821 1896.41,615.749 1892.72,604.74 
  1888.85,593.797 1884.78,582.923 1880.53,572.122 1876.09,561.397 1871.46,550.751 1866.64,540.187 1861.65,529.709 1856.47,519.319 1851.11,509.022 1845.57,498.82 
  1839.85,488.716 1833.96,478.713 1827.89,468.815 1821.65,459.024 1815.25,449.344 1808.67,439.776 1801.93,430.325 1795.03,420.993 1787.96,411.783 1780.73,402.698 
  1773.35,393.74 1765.81,384.913 1758.12,376.218 1750.27,367.659 1742.28,359.238 1734.14,350.958 1725.86,342.821 1717.44,334.83 1708.88,326.987 1700.19,319.295 
  1691.36,311.755 1682.4,304.371 1673.32,297.144 1664.11,290.077 1654.78,283.172 1645.33,276.431 1635.76,269.855 1626.08,263.448 1616.29,257.21 1606.39,251.145 
  1596.39,245.253 1586.28,239.536 1576.08,233.997 1565.78,228.636 1555.39,223.456 1544.92,218.459 1534.35,213.644 1523.71,209.015 1512.98,204.573 1502.18,200.318 
  1491.31,196.253 1480.36,192.377 1469.35,188.694 1458.28,185.203 1447.15,181.906 1435.96,178.803 1424.72,175.897 1413.44,173.187 1402.1,170.674 1390.73,168.36 
  1379.31,166.244 1367.86,164.328 1356.38,162.612 1344.87,161.097 1333.34,159.783 1321.78,158.67 1310.21,157.759 1298.62,157.05 1287.02,156.544 1275.42,156.24 
  1263.81,156.139 1252.2,156.24 1240.6,156.544 1229,157.05 1217.41,157.759 1205.84,158.67 1194.28,159.783 1182.75,161.097 1171.24,162.612 1159.76,164.328 
  1148.31,166.244 1136.89,168.36 1125.52,170.674 1114.18,173.187 1102.89,175.897 1091.65,178.803 1080.47,181.906 1069.34,185.203 1058.26,188.694 1047.26,192.377 
  1036.31,196.253 1025.44,200.318 1014.64,204.573 1003.91,209.015 993.266,213.644 982.703,218.459 972.224,223.456 961.835,228.636 951.538,233.997 941.336,239.536 
  931.232,245.253 921.229,251.145 911.331,257.21 901.54,263.448 891.859,269.855 882.292,276.431 872.841,283.172 863.509,290.077 854.299,297.144 845.214,304.371 
  836.256,311.755 827.428,319.295 818.734,326.987 810.175,334.83 801.754,342.821 793.474,350.958 785.337,359.238 777.346,367.659 769.503,376.218 761.81,384.913 
  754.271,393.74 746.887,402.698 739.66,411.783 732.593,420.993 725.688,430.325 718.946,439.776 712.371,449.344 705.963,459.024 699.726,468.815 693.66,478.713 
  687.768,488.716 682.052,498.82 676.512,509.022 671.152,519.319 665.972,529.709 660.974,540.187 656.16,550.751 651.531,561.397 647.088,572.122 642.834,582.923 
  638.768,593.797 634.893,604.74 631.209,615.749 627.719,626.821 624.421,637.952 621.319,649.139 618.412,660.378 615.702,671.666 613.19,683 610.875,694.376 
  608.76,705.79 606.844,717.24 605.128,728.722 603.612,740.231 602.298,751.766 601.186,763.321 600.275,774.894 599.566,786.482 599.06,798.08 598.756,809.685 
  598.654,821.293 598.756,832.902 599.06,844.507 599.566,856.105 600.275,867.692 601.186,879.265 602.298,890.821 603.612,902.355 605.128,913.865 606.844,925.346 
  608.76,936.796 610.875,948.211 613.19,959.587 615.702,970.921 618.412,982.209 621.319,993.448 624.421,1004.63 627.719,1015.77 631.209,1026.84 634.893,1037.85 
  638.768,1048.79 642.834,1059.66 647.088,1070.46 651.531,1081.19 656.16,1091.84 660.974,1102.4 665.972,1112.88 671.152,1123.27 676.512,1133.56 682.052,1143.77 
  687.768,1153.87 693.66,1163.87 699.726,1173.77 705.963,1183.56 712.371,1193.24 718.946,1202.81 725.688,1212.26 732.593,1221.59 739.66,1230.8 746.887,1239.89 
  754.271,1248.85 761.81,1257.67 769.503,1266.37 777.346,1274.93 785.337,1283.35 793.474,1291.63 801.754,1299.77 810.175,1307.76 818.734,1315.6 827.428,1323.29 
  836.256,1330.83 845.214,1338.22 854.299,1345.44 863.509,1352.51 872.841,1359.41 882.292,1366.16 891.859,1372.73 901.54,1379.14 911.331,1385.38 921.229,1391.44 
  931.232,1397.33 941.336,1403.05 951.538,1408.59 961.835,1413.95 972.224,1419.13 982.703,1424.13 993.266,1428.94 1003.91,1433.57 1014.64,1438.01 1025.44,1442.27 
  1036.31,1446.33 1047.26,1450.21 1058.26,1453.89 1069.34,1457.38 1080.47,1460.68 1091.65,1463.78 1102.89,1466.69 1114.18,1469.4 1125.52,1471.91 1136.89,1474.23 
  1148.31,1476.34 1159.76,1478.26 1171.24,1479.97 1182.75,1481.49 1194.28,1482.8 1205.84,1483.92 1217.41,1484.83 1229,1485.54 1240.6,1486.04 1252.2,1486.35 
  1263.81,1486.45 1275.42,1486.35 1287.02,1486.04 1298.62,1485.54 1310.21,1484.83 1321.78,1483.92 1333.34,1482.8 1344.87,1481.49 1356.38,1479.97 1367.86,1478.26 
  1379.31,1476.34 1390.73,1474.23 1402.1,1471.91 1413.44,1469.4 1424.72,1466.69 1435.96,1463.78 1447.15,1460.68 1458.28,1457.38 1469.35,1453.89 1480.36,1450.21 
  1491.31,1446.33 1502.18,1442.27 1512.98,1438.01 1523.71,1433.57 1534.35,1428.94 1544.92,1424.13 1555.39,1419.13 1565.78,1413.95 1576.08,1408.59 1586.28,1403.05 
  1596.39,1397.33 1606.39,1391.44 1616.29,1385.38 1626.08,1379.14 1635.76,1372.73 1645.33,1366.16 1654.78,1359.41 1664.11,1352.51 1673.32,1345.44 1682.4,1338.22 
  1691.36,1330.83 1700.19,1323.29 1708.88,1315.6 1717.44,1307.76 1725.86,1299.77 1734.14,1291.63 1742.28,1283.35 1750.27,1274.93 1758.12,1266.37 1765.81,1257.67 
  1773.35,1248.85 1780.73,1239.89 1787.96,1230.8 1795.03,1221.59 1801.93,1212.26 1808.67,1202.81 1815.25,1193.24 1821.65,1183.56 1827.89,1173.77 1833.96,1163.87 
  1839.85,1153.87 1845.57,1143.77 1851.11,1133.56 1856.47,1123.27 1861.65,1112.88 1866.64,1102.4 1871.46,1091.84 1876.09,1081.19 1880.53,1070.46 1884.78,1059.66 
  1888.85,1048.79 1892.72,1037.85 1896.41,1026.84 1899.9,1015.77 1903.2,1004.63 1906.3,993.448 1909.21,982.209 1911.92,970.921 1914.43,959.587 1916.74,948.211 
  1918.86,936.796 1920.77,925.346 1922.49,913.865 1924.01,902.355 1925.32,890.821 1926.43,879.265 1927.34,867.692 1928.05,856.105 1928.56,844.507 1928.86,832.902 
  
  "/>
<polyline clip-path="url(#clip703)" style="stroke:#ededed; stroke-width:2; stroke-opacity:1; fill:none" points="
  1928.96,821.293 1928.86,809.685 1928.56,798.08 1928.05,786.482 1927.34,774.894 1926.43,763.321 1925.32,751.766 1924.01,740.231 1922.49,728.722 1920.77,717.24 
  1918.86,705.79 1916.74,694.376 1914.43,683 1911.92,671.666 1909.21,660.378 1906.3,649.139 1903.2,637.952 1899.9,626.821 1896.41,615.749 1892.72,604.74 
  1888.85,593.797 1884.78,582.923 1880.53,572.122 1876.09,561.397 1871.46,550.751 1866.64,540.187 1861.65,529.709 1856.47,519.319 1851.11,509.022 1845.57,498.82 
  1839.85,488.716 1833.96,478.713 1827.89,468.815 1821.65,459.024 1815.25,449.344 1808.67,439.776 1801.93,430.325 1795.03,420.993 1787.96,411.783 1780.73,402.698 
  1773.35,393.74 1765.81,384.913 1758.12,376.218 1750.27,367.659 1742.28,359.238 1734.14,350.958 1725.86,342.821 1717.44,334.83 1708.88,326.987 1700.19,319.295 
  1691.36,311.755 1682.4,304.371 1673.32,297.144 1664.11,290.077 1654.78,283.172 1645.33,276.431 1635.76,269.855 1626.08,263.448 1616.29,257.21 1606.39,251.145 
  1596.39,245.253 1586.28,239.536 1576.08,233.997 1565.78,228.636 1555.39,223.456 1544.92,218.459 1534.35,213.644 1523.71,209.015 1512.98,204.573 1502.18,200.318 
  1491.31,196.253 1480.36,192.377 1469.35,188.694 1458.28,185.203 1447.15,181.906 1435.96,178.803 1424.72,175.897 1413.44,173.187 1402.1,170.674 1390.73,168.36 
  1379.31,166.244 1367.86,164.328 1356.38,162.612 1344.87,161.097 1333.34,159.783 1321.78,158.67 1310.21,157.759 1298.62,157.05 1287.02,156.544 1275.42,156.24 
  1263.81,156.139 1252.2,156.24 1240.6,156.544 1229,157.05 1217.41,157.759 1205.84,158.67 1194.28,159.783 1182.75,161.097 1171.24,162.612 1159.76,164.328 
  1148.31,166.244 1136.89,168.36 1125.52,170.674 1114.18,173.187 1102.89,175.897 1091.65,178.803 1080.47,181.906 1069.34,185.203 1058.26,188.694 1047.26,192.377 
  1036.31,196.253 1025.44,200.318 1014.64,204.573 1003.91,209.015 993.266,213.644 982.703,218.459 972.224,223.456 961.835,228.636 951.538,233.997 941.336,239.536 
  931.232,245.253 921.229,251.145 911.331,257.21 901.54,263.448 891.859,269.855 882.292,276.431 872.841,283.172 863.509,290.077 854.299,297.144 845.214,304.371 
  836.256,311.755 827.428,319.295 818.734,326.987 810.175,334.83 801.754,342.821 793.474,350.958 785.337,359.238 777.346,367.659 769.503,376.218 761.81,384.913 
  754.271,393.74 746.887,402.698 739.66,411.783 732.593,420.993 725.688,430.325 718.946,439.776 712.371,449.344 705.963,459.024 699.726,468.815 693.66,478.713 
  687.768,488.716 682.052,498.82 676.512,509.022 671.152,519.319 665.972,529.709 660.974,540.187 656.16,550.751 651.531,561.397 647.088,572.122 642.834,582.923 
  638.768,593.797 634.893,604.74 631.209,615.749 627.719,626.821 624.421,637.952 621.319,649.139 618.412,660.378 615.702,671.666 613.19,683 610.875,694.376 
  608.76,705.79 606.844,717.24 605.128,728.722 603.612,740.231 602.298,751.766 601.186,763.321 600.275,774.894 599.566,786.482 599.06,798.08 598.756,809.685 
  598.654,821.293 598.756,832.902 599.06,844.507 599.566,856.105 600.275,867.692 601.186,879.265 602.298,890.821 603.612,902.355 605.128,913.865 606.844,925.346 
  608.76,936.796 610.875,948.211 613.19,959.587 615.702,970.921 618.412,982.209 621.319,993.448 624.421,1004.63 627.719,1015.77 631.209,1026.84 634.893,1037.85 
  638.768,1048.79 642.834,1059.66 647.088,1070.46 651.531,1081.19 656.16,1091.84 660.974,1102.4 665.972,1112.88 671.152,1123.27 676.512,1133.56 682.052,1143.77 
  687.768,1153.87 693.66,1163.87 699.726,1173.77 705.963,1183.56 712.371,1193.24 718.946,1202.81 725.688,1212.26 732.593,1221.59 739.66,1230.8 746.887,1239.89 
  754.271,1248.85 761.81,1257.67 769.503,1266.37 777.346,1274.93 785.337,1283.35 793.474,1291.63 801.754,1299.77 810.175,1307.76 818.734,1315.6 827.428,1323.29 
  836.256,1330.83 845.214,1338.22 854.299,1345.44 863.509,1352.51 872.841,1359.41 882.292,1366.16 891.859,1372.73 901.54,1379.14 911.331,1385.38 921.229,1391.44 
  931.232,1397.33 941.336,1403.05 951.538,1408.59 961.835,1413.95 972.224,1419.13 982.703,1424.13 993.266,1428.94 1003.91,1433.57 1014.64,1438.01 1025.44,1442.27 
  1036.31,1446.33 1047.26,1450.21 1058.26,1453.89 1069.34,1457.38 1080.47,1460.68 1091.65,1463.78 1102.89,1466.69 1114.18,1469.4 1125.52,1471.91 1136.89,1474.23 
  1148.31,1476.34 1159.76,1478.26 1171.24,1479.97 1182.75,1481.49 1194.28,1482.8 1205.84,1483.92 1217.41,1484.83 1229,1485.54 1240.6,1486.04 1252.2,1486.35 
  1263.81,1486.45 1275.42,1486.35 1287.02,1486.04 1298.62,1485.54 1310.21,1484.83 1321.78,1483.92 1333.34,1482.8 1344.87,1481.49 1356.38,1479.97 1367.86,1478.26 
  1379.31,1476.34 1390.73,1474.23 1402.1,1471.91 1413.44,1469.4 1424.72,1466.69 1435.96,1463.78 1447.15,1460.68 1458.28,1457.38 1469.35,1453.89 1480.36,1450.21 
  1491.31,1446.33 1502.18,1442.27 1512.98,1438.01 1523.71,1433.57 1534.35,1428.94 1544.92,1424.13 1555.39,1419.13 1565.78,1413.95 1576.08,1408.59 1586.28,1403.05 
  1596.39,1397.33 1606.39,1391.44 1616.29,1385.38 1626.08,1379.14 1635.76,1372.73 1645.33,1366.16 1654.78,1359.41 1664.11,1352.51 1673.32,1345.44 1682.4,1338.22 
  1691.36,1330.83 1700.19,1323.29 1708.88,1315.6 1717.44,1307.76 1725.86,1299.77 1734.14,1291.63 1742.28,1283.35 1750.27,1274.93 1758.12,1266.37 1765.81,1257.67 
  1773.35,1248.85 1780.73,1239.89 1787.96,1230.8 1795.03,1221.59 1801.93,1212.26 1808.67,1202.81 1815.25,1193.24 1821.65,1183.56 1827.89,1173.77 1833.96,1163.87 
  1839.85,1153.87 1845.57,1143.77 1851.11,1133.56 1856.47,1123.27 1861.65,1112.88 1866.64,1102.4 1871.46,1091.84 1876.09,1081.19 1880.53,1070.46 1884.78,1059.66 
  1888.85,1048.79 1892.72,1037.85 1896.41,1026.84 1899.9,1015.77 1903.2,1004.63 1906.3,993.448 1909.21,982.209 1911.92,970.921 1914.43,959.587 1916.74,948.211 
  1918.86,936.796 1920.77,925.346 1922.49,913.865 1924.01,902.355 1925.32,890.821 1926.43,879.265 1927.34,867.692 1928.05,856.105 1928.56,844.507 1928.86,832.902 
  
  "/>
<path clip-path="url(#clip700)" d="M 0 0 M1985.81 813.54 Q1982.2 813.54 1980.37 817.104 Q1978.57 820.646 1978.57 827.776 Q1978.57 834.882 1980.37 838.447 Q1982.2 841.989 1985.81 841.989 Q1989.45 841.989 1991.25 838.447 Q1993.08 834.882 1993.08 827.776 Q1993.08 820.646 1991.25 817.104 Q1989.45 813.54 1985.81 813.54 M1985.81 809.836 Q1991.62 809.836 1994.68 814.442 Q1997.76 819.026 1997.76 827.776 Q1997.76 836.502 1994.68 841.109 Q1991.62 845.692 1985.81 845.692 Q1980 845.692 1976.92 841.109 Q1973.87 836.502 1973.87 827.776 Q1973.87 819.026 1976.92 814.442 Q1980 809.836 1985.81 809.836 Z" fill="#000000" fill-rule="evenodd" fill-opacity="1" /><path clip-path="url(#clip700)" d="M 0 0 M2007.42 798.972 Q2004.64 798.972 2003.02 801.154 Q2001.4 803.317 2001.4 807.097 Q2001.4 810.877 2003 813.059 Q2004.62 815.222 2007.42 815.222 Q2010.19 815.222 2011.81 813.04 Q2013.42 810.859 2013.42 807.097 Q2013.42 803.354 2011.81 801.173 Q2010.19 798.972 2007.42 798.972 M2007.42 796.038 Q2011.94 796.038 2014.51 798.972 Q2017.09 801.906 2017.09 807.097 Q2017.09 812.269 2014.51 815.222 Q2011.94 818.156 2007.42 818.156 Q2002.89 818.156 2000.31 815.222 Q1997.76 812.269 1997.76 807.097 Q1997.76 801.906 2000.31 798.972 Q2002.89 796.038 2007.42 796.038 Z" fill="#000000" fill-rule="evenodd" fill-opacity="1" /><path clip-path="url(#clip700)" d="M 0 0 M1749.86 1343.76 Q1753.21 1344.47 1755.09 1346.74 Q1756.99 1349.01 1756.99 1352.34 Q1756.99 1357.46 1753.47 1360.26 Q1749.95 1363.06 1743.47 1363.06 Q1741.29 1363.06 1738.98 1362.62 Q1736.68 1362.2 1734.23 1361.35 L1734.23 1356.83 Q1736.18 1357.97 1738.49 1358.55 Q1740.8 1359.13 1743.33 1359.13 Q1747.73 1359.13 1750.02 1357.39 Q1752.33 1355.65 1752.33 1352.34 Q1752.33 1349.29 1750.18 1347.58 Q1748.05 1345.84 1744.23 1345.84 L1740.2 1345.84 L1740.2 1342 L1744.42 1342 Q1747.86 1342 1749.69 1340.63 Q1751.52 1339.24 1751.52 1336.65 Q1751.52 1333.99 1749.62 1332.58 Q1747.75 1331.14 1744.23 1331.14 Q1742.31 1331.14 1740.11 1331.56 Q1737.91 1331.97 1735.27 1332.85 L1735.27 1328.69 Q1737.93 1327.95 1740.25 1327.58 Q1742.59 1327.2 1744.65 1327.2 Q1749.97 1327.2 1753.07 1329.64 Q1756.18 1332.04 1756.18 1336.16 Q1756.18 1339.03 1754.53 1341.02 Q1752.89 1342.99 1749.86 1343.76 Z" fill="#000000" fill-rule="evenodd" fill-opacity="1" /><path clip-path="url(#clip700)" d="M 0 0 M1762.86 1358.45 L1770.5 1358.45 L1770.5 1332.09 L1762.19 1333.76 L1762.19 1329.5 L1770.46 1327.83 L1775.13 1327.83 L1775.13 1358.45 L1782.77 1358.45 L1782.77 1362.39 L1762.86 1362.39 L1762.86 1358.45 Z" fill="#000000" fill-rule="evenodd" fill-opacity="1" /><path clip-path="url(#clip700)" d="M 0 0 M1787.89 1327.83 L1806.24 1327.83 L1806.24 1331.76 L1792.17 1331.76 L1792.17 1340.24 Q1793.19 1339.89 1794.21 1339.73 Q1795.23 1339.54 1796.24 1339.54 Q1802.03 1339.54 1805.41 1342.71 Q1808.79 1345.89 1808.79 1351.3 Q1808.79 1356.88 1805.32 1359.98 Q1801.85 1363.06 1795.53 1363.06 Q1793.35 1363.06 1791.08 1362.69 Q1788.84 1362.32 1786.43 1361.58 L1786.43 1356.88 Q1788.51 1358.01 1790.74 1358.57 Q1792.96 1359.13 1795.43 1359.13 Q1799.44 1359.13 1801.78 1357.02 Q1804.11 1354.91 1804.11 1351.3 Q1804.11 1347.69 1801.78 1345.58 Q1799.44 1343.48 1795.43 1343.48 Q1793.56 1343.48 1791.68 1343.89 Q1789.83 1344.31 1787.89 1345.19 L1787.89 1327.83 Z" fill="#000000" fill-rule="evenodd" fill-opacity="1" /><path clip-path="url(#clip700)" d="M 0 0 M1818.46 1316.34 Q1815.67 1316.34 1814.06 1318.52 Q1812.44 1320.69 1812.44 1324.47 Q1812.44 1328.25 1814.04 1330.43 Q1815.66 1332.59 1818.46 1332.59 Q1821.22 1332.59 1822.84 1330.41 Q1824.46 1328.23 1824.46 1324.47 Q1824.46 1320.72 1822.84 1318.54 Q1821.22 1316.34 1818.46 1316.34 M1818.46 1313.41 Q1822.97 1313.41 1825.55 1316.34 Q1828.12 1319.27 1828.12 1324.47 Q1828.12 1329.64 1825.55 1332.59 Q1822.97 1335.52 1818.46 1335.52 Q1813.93 1335.52 1811.35 1332.59 Q1808.79 1329.64 1808.79 1324.47 Q1808.79 1319.27 1811.35 1316.34 Q1813.93 1313.41 1818.46 1313.41 Z" fill="#000000" fill-rule="evenodd" fill-opacity="1" /><path clip-path="url(#clip700)" d="M 0 0 M1222.23 1572.76 L1238.55 1572.76 L1238.55 1576.69 L1216.61 1576.69 L1216.61 1572.76 Q1219.27 1570 1223.85 1565.37 Q1228.46 1560.72 1229.64 1559.38 Q1231.88 1556.85 1232.76 1555.12 Q1233.67 1553.36 1233.67 1551.67 Q1233.67 1548.91 1231.72 1547.18 Q1229.8 1545.44 1226.7 1545.44 Q1224.5 1545.44 1222.05 1546.2 Q1219.62 1546.97 1216.84 1548.52 L1216.84 1543.8 Q1219.66 1542.66 1222.12 1542.08 Q1224.57 1541.51 1226.61 1541.51 Q1231.98 1541.51 1235.17 1544.19 Q1238.37 1546.88 1238.37 1551.37 Q1238.37 1553.5 1237.56 1555.42 Q1236.77 1557.32 1234.66 1559.91 Q1234.08 1560.58 1230.98 1563.8 Q1227.88 1566.99 1222.23 1572.76 Z" fill="#000000" fill-rule="evenodd" fill-opacity="1" /><path clip-path="url(#clip700)" d="M 0 0 M1242.44 1542.13 L1264.66 1542.13 L1264.66 1544.12 L1252.12 1576.69 L1247.23 1576.69 L1259.04 1546.07 L1242.44 1546.07 L1242.44 1542.13 Z" fill="#000000" fill-rule="evenodd" fill-opacity="1" /><path clip-path="url(#clip700)" d="M 0 0 M1279.73 1545.21 Q1276.12 1545.21 1274.29 1548.77 Q1272.49 1552.32 1272.49 1559.45 Q1272.49 1566.55 1274.29 1570.12 Q1276.12 1573.66 1279.73 1573.66 Q1283.37 1573.66 1285.17 1570.12 Q1287 1566.55 1287 1559.45 Q1287 1552.32 1285.17 1548.77 Q1283.37 1545.21 1279.73 1545.21 M1279.73 1541.51 Q1285.54 1541.51 1288.6 1546.11 Q1291.68 1550.7 1291.68 1559.45 Q1291.68 1568.17 1288.6 1572.78 Q1285.54 1577.36 1279.73 1577.36 Q1273.92 1577.36 1270.84 1572.78 Q1267.79 1568.17 1267.79 1559.45 Q1267.79 1550.7 1270.84 1546.11 Q1273.92 1541.51 1279.73 1541.51 Z" fill="#000000" fill-rule="evenodd" fill-opacity="1" /><path clip-path="url(#clip700)" d="M 0 0 M1301.34 1530.64 Q1298.56 1530.64 1296.94 1532.82 Q1295.33 1534.99 1295.33 1538.77 Q1295.33 1542.55 1296.92 1544.73 Q1298.54 1546.89 1301.34 1546.89 Q1304.11 1546.89 1305.73 1544.71 Q1307.34 1542.53 1307.34 1538.77 Q1307.34 1535.02 1305.73 1532.84 Q1304.11 1530.64 1301.34 1530.64 M1301.34 1527.71 Q1305.86 1527.71 1308.43 1530.64 Q1311.01 1533.58 1311.01 1538.77 Q1311.01 1543.94 1308.43 1546.89 Q1305.86 1549.83 1301.34 1549.83 Q1296.81 1549.83 1294.23 1546.89 Q1291.68 1543.94 1291.68 1538.77 Q1291.68 1533.58 1294.23 1530.64 Q1296.81 1527.71 1301.34 1527.71 Z" fill="#000000" fill-rule="evenodd" fill-opacity="1" /><path clip-path="url(#clip700)" d="M 0 0 M705.708 1358.45 L722.028 1358.45 L722.028 1362.39 L700.083 1362.39 L700.083 1358.45 Q702.745 1355.7 707.329 1351.07 Q711.935 1346.42 713.116 1345.08 Q715.361 1342.55 716.241 1340.82 Q717.143 1339.06 717.143 1337.37 Q717.143 1334.61 715.199 1332.88 Q713.278 1331.14 710.176 1331.14 Q707.977 1331.14 705.523 1331.9 Q703.093 1332.67 700.315 1334.22 L700.315 1329.5 Q703.139 1328.36 705.593 1327.78 Q708.046 1327.2 710.083 1327.2 Q715.454 1327.2 718.648 1329.89 Q721.842 1332.58 721.842 1337.07 Q721.842 1339.2 721.032 1341.12 Q720.245 1343.01 718.139 1345.61 Q717.56 1346.28 714.458 1349.5 Q711.356 1352.69 705.708 1358.45 Z" fill="#000000" fill-rule="evenodd" fill-opacity="1" /><path clip-path="url(#clip700)" d="M 0 0 M731.125 1358.45 L747.444 1358.45 L747.444 1362.39 L725.5 1362.39 L725.5 1358.45 Q728.162 1355.7 732.745 1351.07 Q737.352 1346.42 738.532 1345.08 Q740.778 1342.55 741.657 1340.82 Q742.56 1339.06 742.56 1337.37 Q742.56 1334.61 740.616 1332.88 Q738.694 1331.14 735.592 1331.14 Q733.393 1331.14 730.94 1331.9 Q728.509 1332.67 725.731 1334.22 L725.731 1329.5 Q728.555 1328.36 731.009 1327.78 Q733.463 1327.2 735.5 1327.2 Q740.87 1327.2 744.065 1329.89 Q747.259 1332.58 747.259 1337.07 Q747.259 1339.2 746.449 1341.12 Q745.662 1343.01 743.555 1345.61 Q742.977 1346.28 739.875 1349.5 Q736.773 1352.69 731.125 1358.45 Z" fill="#000000" fill-rule="evenodd" fill-opacity="1" /><path clip-path="url(#clip700)" d="M 0 0 M752.56 1327.83 L770.916 1327.83 L770.916 1331.76 L756.842 1331.76 L756.842 1340.24 Q757.861 1339.89 758.879 1339.73 Q759.898 1339.54 760.916 1339.54 Q766.703 1339.54 770.083 1342.71 Q773.463 1345.89 773.463 1351.3 Q773.463 1356.88 769.99 1359.98 Q766.518 1363.06 760.199 1363.06 Q758.023 1363.06 755.754 1362.69 Q753.509 1362.32 751.102 1361.58 L751.102 1356.88 Q753.185 1358.01 755.407 1358.57 Q757.629 1359.13 760.106 1359.13 Q764.111 1359.13 766.449 1357.02 Q768.787 1354.91 768.787 1351.3 Q768.787 1347.69 766.449 1345.58 Q764.111 1343.48 760.106 1343.48 Q758.231 1343.48 756.356 1343.89 Q754.504 1344.31 752.56 1345.19 L752.56 1327.83 Z" fill="#000000" fill-rule="evenodd" fill-opacity="1" /><path clip-path="url(#clip700)" d="M 0 0 M783.13 1316.34 Q780.346 1316.34 778.729 1318.52 Q777.111 1320.69 777.111 1324.47 Q777.111 1328.25 778.71 1330.43 Q780.327 1332.59 783.13 1332.59 Q785.895 1332.59 787.512 1330.41 Q789.129 1328.23 789.129 1324.47 Q789.129 1320.72 787.512 1318.54 Q785.895 1316.34 783.13 1316.34 M783.13 1313.41 Q787.644 1313.41 790.22 1316.34 Q792.797 1319.27 792.797 1324.47 Q792.797 1329.64 790.22 1332.59 Q787.644 1335.52 783.13 1335.52 Q778.597 1335.52 776.02 1332.59 Q773.463 1329.64 773.463 1324.47 Q773.463 1319.27 776.02 1316.34 Q778.597 1313.41 783.13 1313.41 Z" fill="#000000" fill-rule="evenodd" fill-opacity="1" /><path clip-path="url(#clip700)" d="M 0 0 M485.886 841.086 L493.525 841.086 L493.525 814.72 L485.215 816.387 L485.215 812.128 L493.479 810.461 L498.155 810.461 L498.155 841.086 L505.794 841.086 L505.794 845.021 L485.886 845.021 L485.886 841.086 Z" fill="#000000" fill-rule="evenodd" fill-opacity="1" /><path clip-path="url(#clip700)" d="M 0 0 M520.863 828.609 Q517.53 828.609 515.608 830.391 Q513.71 832.174 513.71 835.299 Q513.71 838.424 515.608 840.206 Q517.53 841.989 520.863 841.989 Q524.196 841.989 526.118 840.206 Q528.039 838.401 528.039 835.299 Q528.039 832.174 526.118 830.391 Q524.219 828.609 520.863 828.609 M516.187 826.618 Q513.178 825.878 511.488 823.817 Q509.821 821.757 509.821 818.794 Q509.821 814.651 512.761 812.243 Q515.724 809.836 520.863 809.836 Q526.025 809.836 528.965 812.243 Q531.905 814.651 531.905 818.794 Q531.905 821.757 530.215 823.817 Q528.548 825.878 525.562 826.618 Q528.942 827.405 530.817 829.697 Q532.715 831.989 532.715 835.299 Q532.715 840.322 529.636 843.007 Q526.581 845.692 520.863 845.692 Q515.145 845.692 512.067 843.007 Q509.011 840.322 509.011 835.299 Q509.011 831.989 510.909 829.697 Q512.807 827.405 516.187 826.618 M514.474 819.234 Q514.474 821.919 516.141 823.424 Q517.831 824.928 520.863 824.928 Q523.872 824.928 525.562 823.424 Q527.275 821.919 527.275 819.234 Q527.275 816.549 525.562 815.044 Q523.872 813.54 520.863 813.54 Q517.831 813.54 516.141 815.044 Q514.474 816.549 514.474 819.234 Z" fill="#000000" fill-rule="evenodd" fill-opacity="1" /><path clip-path="url(#clip700)" d="M 0 0 M547.784 813.54 Q544.173 813.54 542.344 817.104 Q540.539 820.646 540.539 827.776 Q540.539 834.882 542.344 838.447 Q544.173 841.989 547.784 841.989 Q551.418 841.989 553.224 838.447 Q555.053 834.882 555.053 827.776 Q555.053 820.646 553.224 817.104 Q551.418 813.54 547.784 813.54 M547.784 809.836 Q553.594 809.836 556.65 814.442 Q559.729 819.026 559.729 827.776 Q559.729 836.502 556.65 841.109 Q553.594 845.692 547.784 845.692 Q541.974 845.692 538.895 841.109 Q535.84 836.502 535.84 827.776 Q535.84 819.026 538.895 814.442 Q541.974 809.836 547.784 809.836 Z" fill="#000000" fill-rule="evenodd" fill-opacity="1" /><path clip-path="url(#clip700)" d="M 0 0 M569.396 798.972 Q566.612 798.972 564.995 801.154 Q563.377 803.317 563.377 807.097 Q563.377 810.877 564.976 813.059 Q566.593 815.222 569.396 815.222 Q572.16 815.222 573.778 813.04 Q575.395 810.859 575.395 807.097 Q575.395 803.354 573.778 801.173 Q572.16 798.972 569.396 798.972 M569.396 796.038 Q573.91 796.038 576.486 798.972 Q579.063 801.906 579.063 807.097 Q579.063 812.269 576.486 815.222 Q573.91 818.156 569.396 818.156 Q564.863 818.156 562.286 815.222 Q559.729 812.269 559.729 807.097 Q559.729 801.906 562.286 798.972 Q564.863 796.038 569.396 796.038 Z" fill="#000000" fill-rule="evenodd" fill-opacity="1" /><path clip-path="url(#clip700)" d="M 0 0 M700.963 323.717 L708.602 323.717 L708.602 297.351 L700.292 299.018 L700.292 294.759 L708.556 293.092 L713.231 293.092 L713.231 323.717 L720.87 323.717 L720.87 327.652 L700.963 327.652 L700.963 323.717 Z" fill="#000000" fill-rule="evenodd" fill-opacity="1" /><path clip-path="url(#clip700)" d="M 0 0 M740.106 309.018 Q743.463 309.736 745.338 312.004 Q747.236 314.273 747.236 317.606 Q747.236 322.722 743.717 325.522 Q740.199 328.323 733.717 328.323 Q731.542 328.323 729.227 327.884 Q726.935 327.467 724.481 326.61 L724.481 322.097 Q726.426 323.231 728.741 323.81 Q731.055 324.388 733.579 324.388 Q737.977 324.388 740.268 322.652 Q742.583 320.916 742.583 317.606 Q742.583 314.55 740.43 312.837 Q738.301 311.101 734.481 311.101 L730.454 311.101 L730.454 307.259 L734.666 307.259 Q738.116 307.259 739.944 305.893 Q741.773 304.504 741.773 301.912 Q741.773 299.249 739.875 297.837 Q738 296.402 734.481 296.402 Q732.56 296.402 730.361 296.819 Q728.162 297.236 725.523 298.115 L725.523 293.949 Q728.185 293.208 730.5 292.837 Q732.838 292.467 734.898 292.467 Q740.222 292.467 743.324 294.898 Q746.426 297.305 746.426 301.425 Q746.426 304.296 744.782 306.286 Q743.139 308.254 740.106 309.018 Z" fill="#000000" fill-rule="evenodd" fill-opacity="1" /><path clip-path="url(#clip700)" d="M 0 0 M752.352 293.092 L770.708 293.092 L770.708 297.027 L756.634 297.027 L756.634 305.499 Q757.652 305.152 758.671 304.99 Q759.689 304.805 760.708 304.805 Q766.495 304.805 769.875 307.976 Q773.254 311.148 773.254 316.564 Q773.254 322.143 769.782 325.245 Q766.31 328.323 759.99 328.323 Q757.815 328.323 755.546 327.953 Q753.301 327.583 750.893 326.842 L750.893 322.143 Q752.977 323.277 755.199 323.833 Q757.421 324.388 759.898 324.388 Q763.902 324.388 766.24 322.282 Q768.578 320.175 768.578 316.564 Q768.578 312.953 766.24 310.847 Q763.902 308.74 759.898 308.74 Q758.023 308.74 756.148 309.157 Q754.296 309.574 752.352 310.453 L752.352 293.092 Z" fill="#000000" fill-rule="evenodd" fill-opacity="1" /><path clip-path="url(#clip700)" d="M 0 0 M782.921 281.603 Q780.138 281.603 778.52 283.785 Q776.903 285.948 776.903 289.728 Q776.903 293.509 778.502 295.69 Q780.119 297.853 782.921 297.853 Q785.686 297.853 787.304 295.671 Q788.921 293.49 788.921 289.728 Q788.921 285.985 787.304 283.804 Q785.686 281.603 782.921 281.603 M782.921 278.669 Q787.435 278.669 790.012 281.603 Q792.589 284.537 792.589 289.728 Q792.589 294.9 790.012 297.853 Q787.435 300.787 782.921 300.787 Q778.389 300.787 775.812 297.853 Q773.254 294.9 773.254 289.728 Q773.254 284.537 775.812 281.603 Q778.389 278.669 782.921 278.669 Z" fill="#000000" fill-rule="evenodd" fill-opacity="1" /><path clip-path="url(#clip700)" d="M 0 0 M1230.94 112.633 L1230.94 108.374 Q1232.7 109.207 1234.5 109.647 Q1236.31 110.087 1238.04 110.087 Q1242.67 110.087 1245.1 106.985 Q1247.56 103.86 1247.9 97.5177 Q1246.56 99.5084 1244.5 100.573 Q1242.44 101.638 1239.94 101.638 Q1234.76 101.638 1231.72 98.5131 Q1228.71 95.3649 1228.71 89.9251 Q1228.71 84.6011 1231.86 81.3835 Q1235.01 78.1659 1240.24 78.1659 Q1246.24 78.1659 1249.38 82.7724 Q1252.56 87.3557 1252.56 96.1057 Q1252.56 104.277 1248.67 109.161 Q1244.8 114.022 1238.25 114.022 Q1236.49 114.022 1234.69 113.675 Q1232.88 113.328 1230.94 112.633 M1240.24 97.9806 Q1243.39 97.9806 1245.22 95.8279 Q1247.07 93.6751 1247.07 89.9251 Q1247.07 86.1983 1245.22 84.0455 Q1243.39 81.8696 1240.24 81.8696 Q1237.09 81.8696 1235.24 84.0455 Q1233.41 86.1983 1233.41 89.9251 Q1233.41 93.6751 1235.24 95.8279 Q1237.09 97.9806 1240.24 97.9806 Z" fill="#000000" fill-rule="evenodd" fill-opacity="1" /><path clip-path="url(#clip700)" d="M 0 0 M1267.63 81.8696 Q1264.01 81.8696 1262.19 85.4344 Q1260.38 88.9761 1260.38 96.1057 Q1260.38 103.212 1262.19 106.777 Q1264.01 110.319 1267.63 110.319 Q1271.26 110.319 1273.07 106.777 Q1274.89 103.212 1274.89 96.1057 Q1274.89 88.9761 1273.07 85.4344 Q1271.26 81.8696 1267.63 81.8696 M1267.63 78.1659 Q1273.44 78.1659 1276.49 82.7724 Q1279.57 87.3557 1279.57 96.1057 Q1279.57 104.832 1276.49 109.439 Q1273.44 114.022 1267.63 114.022 Q1261.82 114.022 1258.74 109.439 Q1255.68 104.832 1255.68 96.1057 Q1255.68 87.3557 1258.74 82.7724 Q1261.82 78.1659 1267.63 78.1659 Z" fill="#000000" fill-rule="evenodd" fill-opacity="1" /><path clip-path="url(#clip700)" d="M 0 0 M1289.24 67.302 Q1286.45 67.302 1284.84 69.4837 Q1283.22 71.6466 1283.22 75.427 Q1283.22 79.2074 1284.82 81.3891 Q1286.43 83.5519 1289.24 83.5519 Q1292 83.5519 1293.62 81.3702 Q1295.24 79.1885 1295.24 75.427 Q1295.24 71.6842 1293.62 69.5025 Q1292 67.302 1289.24 67.302 M1289.24 64.368 Q1293.75 64.368 1296.33 67.302 Q1298.9 70.236 1298.9 75.427 Q1298.9 80.5991 1296.33 83.5519 Q1293.75 86.486 1289.24 86.486 Q1284.7 86.486 1282.13 83.5519 Q1279.57 80.5991 1279.57 75.427 Q1279.57 70.236 1282.13 67.302 Q1284.7 64.368 1289.24 64.368 Z" fill="#000000" fill-rule="evenodd" fill-opacity="1" /><path clip-path="url(#clip700)" d="M 0 0 M1761.51 297.166 L1749.71 315.615 L1761.51 315.615 L1761.51 297.166 M1760.28 293.092 L1766.16 293.092 L1766.16 315.615 L1771.09 315.615 L1771.09 319.504 L1766.16 319.504 L1766.16 327.652 L1761.51 327.652 L1761.51 319.504 L1745.91 319.504 L1745.91 314.99 L1760.28 293.092 Z" fill="#000000" fill-rule="evenodd" fill-opacity="1" /><path clip-path="url(#clip700)" d="M 0 0 M1776.21 293.092 L1794.57 293.092 L1794.57 297.027 L1780.49 297.027 L1780.49 305.499 Q1781.51 305.152 1782.53 304.99 Q1783.55 304.805 1784.57 304.805 Q1790.35 304.805 1793.73 307.976 Q1797.11 311.148 1797.11 316.564 Q1797.11 322.143 1793.64 325.245 Q1790.17 328.323 1783.85 328.323 Q1781.67 328.323 1779.4 327.953 Q1777.16 327.583 1774.75 326.842 L1774.75 322.143 Q1776.83 323.277 1779.06 323.833 Q1781.28 324.388 1783.76 324.388 Q1787.76 324.388 1790.1 322.282 Q1792.44 320.175 1792.44 316.564 Q1792.44 312.953 1790.1 310.847 Q1787.76 308.74 1783.76 308.74 Q1781.88 308.74 1780.01 309.157 Q1778.15 309.574 1776.21 310.453 L1776.21 293.092 Z" fill="#000000" fill-rule="evenodd" fill-opacity="1" /><path clip-path="url(#clip700)" d="M 0 0 M1806.78 281.603 Q1804 281.603 1802.38 283.785 Q1800.76 285.948 1800.76 289.728 Q1800.76 293.509 1802.36 295.69 Q1803.98 297.853 1806.78 297.853 Q1809.54 297.853 1811.16 295.671 Q1812.78 293.49 1812.78 289.728 Q1812.78 285.985 1811.16 283.804 Q1809.54 281.603 1806.78 281.603 M1806.78 278.669 Q1811.29 278.669 1813.87 281.603 Q1816.45 284.537 1816.45 289.728 Q1816.45 294.9 1813.87 297.853 Q1811.29 300.787 1806.78 300.787 Q1802.25 300.787 1799.67 297.853 Q1797.11 294.9 1797.11 289.728 Q1797.11 284.537 1799.67 281.603 Q1802.25 278.669 1806.78 278.669 Z" fill="#000000" fill-rule="evenodd" fill-opacity="1" /><path clip-path="url(#clip700)" d="M 0 0 M1265.08 807.092 Q1261.47 807.092 1259.64 810.657 Q1257.83 814.198 1257.83 821.328 Q1257.83 828.434 1259.64 831.999 Q1261.47 835.541 1265.08 835.541 Q1268.71 835.541 1270.52 831.999 Q1272.34 828.434 1272.34 821.328 Q1272.34 814.198 1270.52 810.657 Q1268.71 807.092 1265.08 807.092 M1265.08 803.388 Q1270.89 803.388 1273.94 807.995 Q1277.02 812.578 1277.02 821.328 Q1277.02 830.055 1273.94 834.661 Q1270.89 839.245 1265.08 839.245 Q1259.27 839.245 1256.19 834.661 Q1253.13 830.055 1253.13 821.328 Q1253.13 812.578 1256.19 807.995 Q1259.27 803.388 1265.08 803.388 Z" fill="#000000" fill-rule="evenodd" fill-opacity="1" /><path clip-path="url(#clip700)" d="M 0 0 M1282.09 832.694 L1286.97 832.694 L1286.97 838.573 L1282.09 838.573 L1282.09 832.694 Z" fill="#000000" fill-rule="evenodd" fill-opacity="1" /><path clip-path="url(#clip700)" d="M 0 0 M1302.04 807.092 Q1298.43 807.092 1296.6 810.657 Q1294.8 814.198 1294.8 821.328 Q1294.8 828.434 1296.6 831.999 Q1298.43 835.541 1302.04 835.541 Q1305.68 835.541 1307.48 831.999 Q1309.31 828.434 1309.31 821.328 Q1309.31 814.198 1307.48 810.657 Q1305.68 807.092 1302.04 807.092 M1302.04 803.388 Q1307.85 803.388 1310.91 807.995 Q1313.99 812.578 1313.99 821.328 Q1313.99 830.055 1310.91 834.661 Q1307.85 839.245 1302.04 839.245 Q1296.23 839.245 1293.15 834.661 Q1290.1 830.055 1290.1 821.328 Q1290.1 812.578 1293.15 807.995 Q1296.23 803.388 1302.04 803.388 Z" fill="#000000" fill-rule="evenodd" fill-opacity="1" /><path clip-path="url(#clip700)" d="M 0 0 M1329.06 807.092 Q1325.45 807.092 1323.62 810.657 Q1321.81 814.198 1321.81 821.328 Q1321.81 828.434 1323.62 831.999 Q1325.45 835.541 1329.06 835.541 Q1332.69 835.541 1334.5 831.999 Q1336.33 828.434 1336.33 821.328 Q1336.33 814.198 1334.5 810.657 Q1332.69 807.092 1329.06 807.092 M1329.06 803.388 Q1334.87 803.388 1337.92 807.995 Q1341 812.578 1341 821.328 Q1341 830.055 1337.92 834.661 Q1334.87 839.245 1329.06 839.245 Q1323.25 839.245 1320.17 834.661 Q1317.11 830.055 1317.11 821.328 Q1317.11 812.578 1320.17 807.995 Q1323.25 803.388 1329.06 803.388 Z" fill="#000000" fill-rule="evenodd" fill-opacity="1" /><path clip-path="url(#clip700)" d="M 0 0 M1266.37 668.518 Q1262.76 668.518 1260.93 672.083 Q1259.13 675.625 1259.13 682.754 Q1259.13 689.861 1260.93 693.425 Q1262.76 696.967 1266.37 696.967 Q1270.01 696.967 1271.81 693.425 Q1273.64 689.861 1273.64 682.754 Q1273.64 675.625 1271.81 672.083 Q1270.01 668.518 1266.37 668.518 M1266.37 664.814 Q1272.18 664.814 1275.24 669.421 Q1278.32 674.004 1278.32 682.754 Q1278.32 691.481 1275.24 696.087 Q1272.18 700.671 1266.37 700.671 Q1260.56 700.671 1257.48 696.087 Q1254.43 691.481 1254.43 682.754 Q1254.43 674.004 1257.48 669.421 Q1260.56 664.814 1266.37 664.814 Z" fill="#000000" fill-rule="evenodd" fill-opacity="1" /><path clip-path="url(#clip700)" d="M 0 0 M1283.39 694.12 L1288.27 694.12 L1288.27 699.999 L1283.39 699.999 L1283.39 694.12 Z" fill="#000000" fill-rule="evenodd" fill-opacity="1" /><path clip-path="url(#clip700)" d="M 0 0 M1297.37 696.064 L1313.69 696.064 L1313.69 699.999 L1291.74 699.999 L1291.74 696.064 Q1294.4 693.31 1298.99 688.68 Q1303.59 684.027 1304.77 682.685 Q1307.02 680.162 1307.9 678.426 Q1308.8 676.666 1308.8 674.976 Q1308.8 672.222 1306.86 670.486 Q1304.94 668.75 1301.84 668.75 Q1299.64 668.75 1297.18 669.514 Q1294.75 670.277 1291.97 671.828 L1291.97 667.106 Q1294.8 665.972 1297.25 665.393 Q1299.71 664.814 1301.74 664.814 Q1307.11 664.814 1310.31 667.5 Q1313.5 670.185 1313.5 674.676 Q1313.5 676.805 1312.69 678.726 Q1311.9 680.625 1309.8 683.217 Q1309.22 683.888 1306.12 687.106 Q1303.02 690.3 1297.37 696.064 Z" fill="#000000" fill-rule="evenodd" fill-opacity="1" /><path clip-path="url(#clip700)" d="M 0 0 M1318.8 665.439 L1337.16 665.439 L1337.16 669.375 L1323.09 669.375 L1323.09 677.847 Q1324.1 677.5 1325.12 677.338 Q1326.14 677.152 1327.16 677.152 Q1332.95 677.152 1336.33 680.324 Q1339.71 683.495 1339.71 688.912 Q1339.71 694.49 1336.23 697.592 Q1332.76 700.671 1326.44 700.671 Q1324.27 700.671 1322 700.3 Q1319.75 699.93 1317.34 699.189 L1317.34 694.49 Q1319.43 695.624 1321.65 696.18 Q1323.87 696.736 1326.35 696.736 Q1330.35 696.736 1332.69 694.629 Q1335.03 692.523 1335.03 688.912 Q1335.03 685.3 1332.69 683.194 Q1330.35 681.088 1326.35 681.088 Q1324.47 681.088 1322.6 681.504 Q1320.75 681.921 1318.8 682.8 L1318.8 665.439 Z" fill="#000000" fill-rule="evenodd" fill-opacity="1" /><path clip-path="url(#clip700)" d="M 0 0 M1265.57 529.944 Q1261.96 529.944 1260.13 533.509 Q1258.33 537.051 1258.33 544.18 Q1258.33 551.287 1260.13 554.852 Q1261.96 558.393 1265.57 558.393 Q1269.21 558.393 1271.01 554.852 Q1272.84 551.287 1272.84 544.18 Q1272.84 537.051 1271.01 533.509 Q1269.21 529.944 1265.57 529.944 M1265.57 526.241 Q1271.38 526.241 1274.44 530.847 Q1277.52 535.43 1277.52 544.18 Q1277.52 552.907 1274.44 557.514 Q1271.38 562.097 1265.57 562.097 Q1259.76 562.097 1256.68 557.514 Q1253.63 552.907 1253.63 544.18 Q1253.63 535.43 1256.68 530.847 Q1259.76 526.241 1265.57 526.241 Z" fill="#000000" fill-rule="evenodd" fill-opacity="1" /><path clip-path="url(#clip700)" d="M 0 0 M1282.59 555.546 L1287.47 555.546 L1287.47 561.426 L1282.59 561.426 L1282.59 555.546 Z" fill="#000000" fill-rule="evenodd" fill-opacity="1" /><path clip-path="url(#clip700)" d="M 0 0 M1292.59 526.866 L1310.94 526.866 L1310.94 530.801 L1296.87 530.801 L1296.87 539.273 Q1297.89 538.926 1298.91 538.764 Q1299.93 538.579 1300.94 538.579 Q1306.73 538.579 1310.11 541.75 Q1313.49 544.921 1313.49 550.338 Q1313.49 555.916 1310.02 559.018 Q1306.55 562.097 1300.23 562.097 Q1298.05 562.097 1295.78 561.727 Q1293.54 561.356 1291.13 560.615 L1291.13 555.916 Q1293.21 557.051 1295.43 557.606 Q1297.66 558.162 1300.13 558.162 Q1304.14 558.162 1306.48 556.055 Q1308.81 553.949 1308.81 550.338 Q1308.81 546.727 1306.48 544.62 Q1304.14 542.514 1300.13 542.514 Q1298.26 542.514 1296.38 542.93 Q1294.53 543.347 1292.59 544.227 L1292.59 526.866 Z" fill="#000000" fill-rule="evenodd" fill-opacity="1" /><path clip-path="url(#clip700)" d="M 0 0 M1328.56 529.944 Q1324.95 529.944 1323.12 533.509 Q1321.31 537.051 1321.31 544.18 Q1321.31 551.287 1323.12 554.852 Q1324.95 558.393 1328.56 558.393 Q1332.19 558.393 1334 554.852 Q1335.83 551.287 1335.83 544.18 Q1335.83 537.051 1334 533.509 Q1332.19 529.944 1328.56 529.944 M1328.56 526.241 Q1334.37 526.241 1337.43 530.847 Q1340.5 535.43 1340.5 544.18 Q1340.5 552.907 1337.43 557.514 Q1334.37 562.097 1328.56 562.097 Q1322.75 562.097 1319.67 557.514 Q1316.62 552.907 1316.62 544.18 Q1316.62 535.43 1319.67 530.847 Q1322.75 526.241 1328.56 526.241 Z" fill="#000000" fill-rule="evenodd" fill-opacity="1" /><path clip-path="url(#clip700)" d="M 0 0 M1266.03 391.37 Q1262.41 391.37 1260.59 394.935 Q1258.78 398.477 1258.78 405.606 Q1258.78 412.713 1260.59 416.278 Q1262.41 419.819 1266.03 419.819 Q1269.66 419.819 1271.46 416.278 Q1273.29 412.713 1273.29 405.606 Q1273.29 398.477 1271.46 394.935 Q1269.66 391.37 1266.03 391.37 M1266.03 387.667 Q1271.84 387.667 1274.89 392.273 Q1277.97 396.857 1277.97 405.606 Q1277.97 414.333 1274.89 418.94 Q1271.84 423.523 1266.03 423.523 Q1260.22 423.523 1257.14 418.94 Q1254.08 414.333 1254.08 405.606 Q1254.08 396.857 1257.14 392.273 Q1260.22 387.667 1266.03 387.667 Z" fill="#000000" fill-rule="evenodd" fill-opacity="1" /><path clip-path="url(#clip700)" d="M 0 0 M1283.04 416.972 L1287.92 416.972 L1287.92 422.852 L1283.04 422.852 L1283.04 416.972 Z" fill="#000000" fill-rule="evenodd" fill-opacity="1" /><path clip-path="url(#clip700)" d="M 0 0 M1291.81 388.292 L1314.03 388.292 L1314.03 390.282 L1301.49 422.852 L1296.6 422.852 L1308.41 392.227 L1291.81 392.227 L1291.81 388.292 Z" fill="#000000" fill-rule="evenodd" fill-opacity="1" /><path clip-path="url(#clip700)" d="M 0 0 M1319.15 388.292 L1337.51 388.292 L1337.51 392.227 L1323.43 392.227 L1323.43 400.699 Q1324.45 400.352 1325.47 400.19 Q1326.49 400.005 1327.51 400.005 Q1333.29 400.005 1336.67 403.176 Q1340.05 406.347 1340.05 411.764 Q1340.05 417.343 1336.58 420.444 Q1333.11 423.523 1326.79 423.523 Q1324.61 423.523 1322.34 423.153 Q1320.1 422.782 1317.69 422.042 L1317.69 417.343 Q1319.77 418.477 1322 419.032 Q1324.22 419.588 1326.7 419.588 Q1330.7 419.588 1333.04 417.481 Q1335.38 415.375 1335.38 411.764 Q1335.38 408.153 1333.04 406.046 Q1330.7 403.94 1326.7 403.94 Q1324.82 403.94 1322.95 404.356 Q1321.09 404.773 1319.15 405.653 L1319.15 388.292 Z" fill="#000000" fill-rule="evenodd" fill-opacity="1" /><path clip-path="url(#clip700)" d="M 0 0 M1255.46 280.343 L1263.1 280.343 L1263.1 253.977 L1254.79 255.644 L1254.79 251.385 L1263.05 249.718 L1267.73 249.718 L1267.73 280.343 L1275.37 280.343 L1275.37 284.278 L1255.46 284.278 L1255.46 280.343 Z" fill="#000000" fill-rule="evenodd" fill-opacity="1" /><path clip-path="url(#clip700)" d="M 0 0 M1280.43 278.398 L1285.32 278.398 L1285.32 284.278 L1280.43 284.278 L1280.43 278.398 Z" fill="#000000" fill-rule="evenodd" fill-opacity="1" /><path clip-path="url(#clip700)" d="M 0 0 M1300.39 252.797 Q1296.78 252.797 1294.95 256.361 Q1293.14 259.903 1293.14 267.033 Q1293.14 274.139 1294.95 277.704 Q1296.78 281.245 1300.39 281.245 Q1304.02 281.245 1305.83 277.704 Q1307.66 274.139 1307.66 267.033 Q1307.66 259.903 1305.83 256.361 Q1304.02 252.797 1300.39 252.797 M1300.39 249.093 Q1306.2 249.093 1309.25 253.699 Q1312.33 258.283 1312.33 267.033 Q1312.33 275.759 1309.25 280.366 Q1306.2 284.949 1300.39 284.949 Q1294.58 284.949 1291.5 280.366 Q1288.44 275.759 1288.44 267.033 Q1288.44 258.283 1291.5 253.699 Q1294.58 249.093 1300.39 249.093 Z" fill="#000000" fill-rule="evenodd" fill-opacity="1" /><path clip-path="url(#clip700)" d="M 0 0 M1327.4 252.797 Q1323.79 252.797 1321.96 256.361 Q1320.16 259.903 1320.16 267.033 Q1320.16 274.139 1321.96 277.704 Q1323.79 281.245 1327.4 281.245 Q1331.04 281.245 1332.84 277.704 Q1334.67 274.139 1334.67 267.033 Q1334.67 259.903 1332.84 256.361 Q1331.04 252.797 1327.4 252.797 M1327.4 249.093 Q1333.21 249.093 1336.27 253.699 Q1339.35 258.283 1339.35 267.033 Q1339.35 275.759 1336.27 280.366 Q1333.21 284.949 1327.4 284.949 Q1321.59 284.949 1318.51 280.366 Q1315.46 275.759 1315.46 267.033 Q1315.46 258.283 1318.51 253.699 Q1321.59 249.093 1327.4 249.093 Z" fill="#000000" fill-rule="evenodd" fill-opacity="1" /><polyline clip-path="url(#clip703)" style="stroke:#009af9; stroke-width:4; stroke-opacity:1; fill:none" points="
  1818.1,821.293 1811.44,794.39 1791.68,769.302 1759.46,747.77 1715.83,731.38 1662.21,721.5 1600.31,719.217 1532.12,725.292 1459.78,740.119 1385.56,763.709 
  1311.72,795.682 1240.48,835.276 1173.9,881.371 1113.82,932.532 1061.83,987.056 1019.15,1043.04 986.661,1098.44 964.821,1151.18 953.689,1199.18 952.917,1240.48 
  961.776,1273.32 979.187,1296.16 1003.77,1307.78 1033.92,1307.35 1067.84,1294.41 1103.64,1268.94 1139.43,1231.32 1173.36,1182.38 1203.73,1123.33 1229.04,1055.72 
  1248.04,981.422 1259.82,902.527 1263.81,821.293 1259.82,740.059 1248.04,661.165 1229.04,586.867 1203.73,519.26 1173.36,460.207 1139.43,411.267 1103.64,373.65 
  1067.84,348.173 1033.92,335.233 1003.77,334.802 979.187,346.431 961.776,369.269 952.917,402.104 953.689,443.411 964.821,491.411 986.661,544.146 1019.15,599.549 
  1061.83,655.531 1113.82,710.055 1173.9,761.215 1240.48,807.311 1311.72,846.905 1385.56,878.878 1459.78,902.468 1532.12,917.295 1600.31,923.369 1662.21,921.087 
  1715.83,911.207 1759.46,894.817 1791.68,873.284 1811.44,848.197 1818.1,821.293 1811.44,794.39 1791.68,769.302 1759.46,747.77 1715.83,731.38 1662.21,721.5 
  1600.31,719.217 1532.12,725.292 1459.78,740.119 1385.56,763.709 1311.72,795.682 1240.48,835.276 1173.9,881.371 1113.82,932.532 1061.83,987.056 1019.15,1043.04 
  986.661,1098.44 964.821,1151.18 953.689,1199.18 952.917,1240.48 961.776,1273.32 979.187,1296.16 1003.77,1307.78 1033.92,1307.35 1067.84,1294.41 1103.64,1268.94 
  1139.43,1231.32 1173.36,1182.38 1203.73,1123.33 1229.04,1055.72 1248.04,981.422 1259.82,902.527 1263.81,821.293 1259.82,740.059 1248.04,661.165 1229.04,586.867 
  1203.73,519.26 1173.36,460.207 1139.43,411.267 1103.64,373.65 1067.84,348.173 1033.92,335.233 1003.77,334.802 979.187,346.431 961.776,369.269 952.917,402.104 
  953.689,443.411 964.821,491.411 986.661,544.146 1019.15,599.549 1061.83,655.531 1113.82,710.055 1173.9,761.215 1240.48,807.311 1311.72,846.905 1385.56,878.878 
  1459.78,902.468 1532.12,917.295 1600.31,923.369 1662.21,921.087 1715.83,911.207 1759.46,894.817 1791.68,873.284 1811.44,848.197 1818.1,821.293 
  "/>
<path clip-path="url(#clip700)" d="
M1987.15 216.178 L2280.16 216.178 L2280.16 95.2176 L1987.15 95.2176  Z
  " fill="#ffffff" fill-rule="evenodd" fill-opacity="1"/>
<polyline clip-path="url(#clip700)" style="stroke:#000000; stroke-width:4; stroke-opacity:1; fill:none" points="
  1987.15,216.178 2280.16,216.178 2280.16,95.2176 1987.15,95.2176 1987.15,216.178 
  "/>
<polyline clip-path="url(#clip700)" style="stroke:#009af9; stroke-width:4; stroke-opacity:1; fill:none" points="
  2011.35,155.698 2156.54,155.698 
  "/>
<path clip-path="url(#clip700)" d="M 0 0 M2194.59 175.385 Q2192.78 180.015 2191.07 181.427 Q2189.35 182.839 2186.48 182.839 L2183.08 182.839 L2183.08 179.274 L2185.58 179.274 Q2187.34 179.274 2188.31 178.44 Q2189.29 177.607 2190.47 174.505 L2191.23 172.561 L2180.74 147.052 L2185.26 147.052 L2193.36 167.329 L2201.46 147.052 L2205.97 147.052 L2194.59 175.385 Z" fill="#000000" fill-rule="evenodd" fill-opacity="1" /><path clip-path="url(#clip700)" d="M 0 0 M2211.85 169.042 L2219.49 169.042 L2219.49 142.677 L2211.18 144.343 L2211.18 140.084 L2219.45 138.418 L2224.12 138.418 L2224.12 169.042 L2231.76 169.042 L2231.76 172.978 L2211.85 172.978 L2211.85 169.042 Z" fill="#000000" fill-rule="evenodd" fill-opacity="1" /></svg>
